HIERARCHY
ROOT Hips
{
  OFFSET 5.84602e-005 68.8428 3.50346
  CHANNELS 6 Xposition Yposition Zposition Zrotation Xrotation Yrotation
  JOINT Spine
  {
    OFFSET 0 8.597 -4.6522
    CHANNELS 3 Zrotation Xrotation Yrotation
    JOINT Spine1
    {
      OFFSET 0 7.8454 0.4098
      CHANNELS 3 Zrotation Xrotation Yrotation
      JOINT Spine2
      {
        OFFSET 0 9.7078 -2.1609
        CHANNELS 3 Zrotation Xrotation Yrotation
        JOINT Neck
        {
          OFFSET 0 21.8761 -0.4549
          CHANNELS 3 Zrotation Xrotation Yrotation
          JOINT Head
          {
            OFFSET 0 12.3537 3.3602
            CHANNELS 3 Zrotation Xrotation Yrotation
            End Site
            {
              OFFSET 0.0001 18.9506 0.5657
            }
          }
        }
        JOINT LeftShoulder
        {
          OFFSET 2.2086 21.1115 7.2329
          CHANNELS 3 Zrotation Xrotation Yrotation
          JOINT LeftArm
          {
            OFFSET 13.1193 3.0282 -4.8998
            CHANNELS 3 Zrotation Xrotation Yrotation
            JOINT LeftForeArm
            {
              OFFSET 27.4081 -0.0973053 -0.2375
              CHANNELS 3 Zrotation Xrotation Yrotation
              JOINT LeftHand
              {
                OFFSET 22.8641 0.0662994 -0.1369
                CHANNELS 3 Zrotation Xrotation Yrotation
                JOINT LeftHandIndex1
                {
                  OFFSET 8.8614 0.775009 2.4612
                  CHANNELS 3 Zrotation Xrotation Yrotation
                  JOINT LeftHandIndex2
                  {
                    OFFSET 3.3146 -0.808304 0.5841
                    CHANNELS 3 Zrotation Xrotation Yrotation
                    JOINT LeftHandIndex3
                    {
                      OFFSET 2.2628 -0.552002 0.3989
                      CHANNELS 3 Zrotation Xrotation Yrotation
                      End Site
                      {
                        OFFSET 1.6102 -0.4807 0.2612
                      }
                    }
                  }
                }
                JOINT LeftHandMiddle1
                {
                  OFFSET 8.9937 0.895004 0.2143
                  CHANNELS 3 Zrotation Xrotation Yrotation
                  JOINT LeftHandMiddle2
                  {
                    OFFSET 4.0984 0.0113983 -0.0242
                    CHANNELS 3 Zrotation Xrotation Yrotation
                    JOINT LeftHandMiddle3
                    {
                      OFFSET 2.2716 0.00689697 -0.0138001
                      CHANNELS 3 Zrotation Xrotation Yrotation
                      End Site
                      {
                        OFFSET 2.0404 -0.1441 0.0027
                      }
                    }
                  }
                }
                JOINT LeftHandRing1
                {
                  OFFSET 8.5234 0.597198 -2.0164
                  CHANNELS 3 Zrotation Xrotation Yrotation
                  JOINT LeftHandRing2
                  {
                    OFFSET 3.7188 -0.188293 -0.2328
                    CHANNELS 3 Zrotation Xrotation Yrotation
                    JOINT LeftHandRing3
                    {
                      OFFSET 2.1191 -0.106598 -0.1332
                      CHANNELS 3 Zrotation Xrotation Yrotation
                      End Site
                      {
                        OFFSET 1.8737 -0.2304 -0.0886
                      }
                    }
                  }
                }
                JOINT LeftHandPinky1
                {
                  OFFSET 7.9094 -0.601089 -3.4825
                  CHANNELS 3 Zrotation Xrotation Yrotation
                  JOINT LeftHandPinky2
                  {
                    OFFSET 2.2874 -0.477005 -0.6314
                    CHANNELS 3 Zrotation Xrotation Yrotation
                    JOINT LeftHandPinky3
                    {
                      OFFSET 1.6774 -0.349396 -0.4633
                      CHANNELS 3 Zrotation Xrotation Yrotation
                      End Site
                      {
                        OFFSET 1.4888 -0.4091 -0.3416
                      }
                    }
                  }
                }
                JOINT LeftHandThumb1
                {
                  OFFSET 1.833 -1.3875 1.3896
                  CHANNELS 3 Zrotation Xrotation Yrotation
                  JOINT LeftHandThumb2
                  {
                    OFFSET 3.4129 -1.121 2.5732
                    CHANNELS 3 Zrotation Xrotation Yrotation
                    JOINT LeftHandThumb3
                    {
                      OFFSET 2.2474 -0.804199 1.6192
                      CHANNELS 3 Zrotation Xrotation Yrotation
                      End Site
                      {
                        OFFSET 1.6527 -0.5689 1.1317
                      }
                    }
                  }
                }
              }
            }
          }
        }
        JOINT RightShoulder
        {
          OFFSET -2.2086 21.1115 7.2329
          CHANNELS 3 Zrotation Xrotation Yrotation
          JOINT RightArm
          {
            OFFSET -13.1216 3.0287 -4.9007
            CHANNELS 3 Zrotation Xrotation Yrotation
            JOINT RightForeArm
            {
              OFFSET -27.4081 -0.0973053 -0.2375
              CHANNELS 3 Zrotation Xrotation Yrotation
              JOINT RightHand
              {
                OFFSET -22.8641 0.0664063 -0.1369
                CHANNELS 3 Zrotation Xrotation Yrotation
                JOINT RightHandIndex1
                {
                  OFFSET -8.8614 0.774994 2.4612
                  CHANNELS 3 Zrotation Xrotation Yrotation
                  JOINT RightHandIndex2
                  {
                    OFFSET -3.3146 -0.808304 0.5841
                    CHANNELS 3 Zrotation Xrotation Yrotation
                    JOINT RightHandIndex3
                    {
                      OFFSET -2.2628 -0.552002 0.3989
                      CHANNELS 3 Zrotation Xrotation Yrotation
                      End Site
                      {
                        OFFSET -1.6102 -0.4807 0.2612
                      }
                    }
                  }
                }
                JOINT RightHandMiddle1
                {
                  OFFSET -8.9937 0.894989 0.2143
                  CHANNELS 3 Zrotation Xrotation Yrotation
                  JOINT RightHandMiddle2
                  {
                    OFFSET -4.0984 0.0113983 -0.0242
                    CHANNELS 3 Zrotation Xrotation Yrotation
                    JOINT RightHandMiddle3
                    {
                      OFFSET -2.2716 0.00691223 -0.0138001
                      CHANNELS 3 Zrotation Xrotation Yrotation
                      End Site
                      {
                        OFFSET -2.0404 -0.1441 0.0027
                      }
                    }
                  }
                }
                JOINT RightHandRing1
                {
                  OFFSET -8.5234 0.597198 -2.0164
                  CHANNELS 3 Zrotation Xrotation Yrotation
                  JOINT RightHandRing2
                  {
                    OFFSET -3.7188 -0.188309 -0.2328
                    CHANNELS 3 Zrotation Xrotation Yrotation
                    JOINT RightHandRing3
                    {
                      OFFSET -2.1191 -0.106598 -0.1332
                      CHANNELS 3 Zrotation Xrotation Yrotation
                      End Site
                      {
                        OFFSET -1.8737 -0.2304 -0.0886
                      }
                    }
                  }
                }
                JOINT RightHandPinky1
                {
                  OFFSET -7.9094 -0.601105 -3.4825
                  CHANNELS 3 Zrotation Xrotation Yrotation
                  JOINT RightHandPinky2
                  {
                    OFFSET -2.2874 -0.477005 -0.6314
                    CHANNELS 3 Zrotation Xrotation Yrotation
                    JOINT RightHandPinky3
                    {
                      OFFSET -1.6774 -0.349396 -0.4633
                      CHANNELS 3 Zrotation Xrotation Yrotation
                      End Site
                      {
                        OFFSET -1.4888 -0.4091 -0.3416
                      }
                    }
                  }
                }
                JOINT RightHandThumb1
                {
                  OFFSET -1.833 -1.38751 1.3896
                  CHANNELS 3 Zrotation Xrotation Yrotation
                  JOINT RightHandThumb2
                  {
                    OFFSET -3.41299 -1.12099 2.5732
                    CHANNELS 3 Zrotation Xrotation Yrotation
                    JOINT RightHandThumb3
                    {
                      OFFSET -2.24741 -0.804108 1.6192
                      CHANNELS 3 Zrotation Xrotation Yrotation
                      End Site
                      {
                        OFFSET -1.6527 -0.5689 1.1317
                      }
                    }
                  }
                }
              }
            }
          }
        }
      }
    }
  }
  JOINT RightUpLeg
  {
    OFFSET -9.1966 3.8861 -0.7581
    CHANNELS 3 Zrotation Xrotation Yrotation
    JOINT RightLeg
    {
      OFFSET -0.7359 -41.0265 0
      CHANNELS 3 Zrotation Xrotation Yrotation
      JOINT RightFoot
      {
        OFFSET 0 -40.2855 0
        CHANNELS 3 Zrotation Xrotation Yrotation
        JOINT RightToeBase
        {
          OFFSET 0 -5.6122 11.7359
          CHANNELS 3 Zrotation Xrotation Yrotation
          End Site
          {
            OFFSET 0 0 7.8731
          }
        }
      }
    }
  }
  JOINT LeftUpLeg
  {
    OFFSET 9.1965 3.8864 -0.7581
    CHANNELS 3 Zrotation Xrotation Yrotation
    JOINT LeftLeg
    {
      OFFSET 0.7359 -41.0268 0
      CHANNELS 3 Zrotation Xrotation Yrotation
      JOINT LeftFoot
      {
        OFFSET 0 -40.2855 0
        CHANNELS 3 Zrotation Xrotation Yrotation
        JOINT LeftToeBase
        {
          OFFSET 0 -5.6122 11.7359
          CHANNELS 3 Zrotation Xrotation Yrotation
          End Site
          {
            OFFSET 0 0 7.8731
          }
        }
      }
    }
  }
}
MOTION
Frames:	6
Frame Time:	0.0333333
15.9224 13.3297 23.085 -0 -33.0001 -0 0 15.5992 -0 0 31.1985 -0 0 31.1985 -0 0 30.9995 -0 1.50934 -14.1736 22.3179 0 0 -0 -75.9999 3.59875e-006 4.99679 1.52588e-005 -5.45341e-015 -141.005 -12.0835 -12.7975 6.9838 -9.54166e-015 1.19271e-015 -0 -3.18055e-015 2.78299e-015 -0 -6.36111e-015 2.78299e-015 -3.18055e-015 -9.54166e-015 1.19271e-015 -0 -0.0146492 -8.89884e-005 2.30148e-006 -3.18055e-015 -2.78299e-015 -4.77083e-015 -9.54166e-015 1.19271e-015 -0 -0.018756 -0.0011771 6.34425e-005 -3.18055e-015 -3.57812e-015 -0 -9.54166e-015 1.19271e-015 -0 -0.0122031 -0.00323101 0.000669199 -7.70713e-007 -1.62759e-006 -1.04526e-006 -9.54166e-015 1.19271e-015 -0 -3.18055e-015 2.78299e-015 -0 -6.36111e-015 2.78299e-015 -3.18055e-015 -1.2866e-006 2.76963e-006 16.997 22.8442 26.7259 29.2779 5.59019 1.88646 63.8023 18.1005 -8.45685 20.2263 9.55733e-007 4.48182e-007 -1.3018e-006 3.55933e-006 1.10163e-006 6.09669e-007 4.51506e-006 1.54981e-006 -6.92128e-007 9.55733e-007 4.48182e-007 -1.3018e-006 0.0149888 -8.86116e-005 -1.54013e-006 4.51509e-006 1.54972e-006 -6.92334e-007 9.55733e-007 4.48182e-007 -1.3018e-006 0.0189897 -0.00118279 -5.86335e-005 4.51509e-006 1.54969e-006 -6.92432e-007 9.55733e-007 4.48182e-007 -1.3018e-006 0.0121969 -0.00322329 -0.000670482 3.35193e-006 2.72902e-006 -8.06101e-007 9.55733e-007 4.48182e-007 -1.3018e-006 3.55933e-006 1.10163e-006 6.09669e-007 4.51506e-006 1.54981e-006 -6.92128e-007 -37.305 -12.5896 8.78989 179.943 41.7612 174.127 -2.11471 15.6078 -3.65084 -2.82492e-007 1.92709e-006 -5.94145e-007 30.3081 -18.8714 -7.28813 -179.914 38.5298 -173.157 -1.50681 42.7097 5.64205 3.53912e-006 -8.46386e-007 2.91993e-007 
15.9261 12.8688 23.0902 -0 -33.0001 -0 0 15.5992 -0 0 31.1985 -0 0 31.1985 -0 0 30.9996 -0 1.27175 -12.8935 22.6852 0 0 -0 -75.9999 3.59875e-006 4.99679 1.52588e-005 -5.45341e-015 -141.005 -11.9181 -13.5424 7.41828 -3.98753e-006 2.32592e-007 3.54332e-007 3.54332e-007 2.69178e-006 3.98753e-006 -1.8166e-006 1.46219e-006 2.17093e-006 -3.98753e-006 2.32592e-007 3.54332e-007 -0.0146086 -8.79005e-005 3.74428e-006 -1.81675e-006 1.46191e-006 2.17112e-006 -3.98753e-006 2.32592e-007 3.54332e-007 -0.0187885 -0.00117297 6.37248e-005 -1.03988e-006 3.16745e-006 3.16854e-006 -3.98753e-006 2.32592e-007 3.54332e-007 -0.0122834 -0.00325917 0.000679744 -1.81666e-006 1.46193e-006 2.17115e-006 -3.98753e-006 2.32592e-007 3.54332e-007 3.54332e-007 2.69178e-006 3.98753e-006 -1.8166e-006 1.46219e-006 2.17093e-006 -1.2866e-006 2.76963e-006 16.997 22.9908 26.7988 28.9523 4.42869 2.70009 59.8284 18.1005 -8.45685 20.2263 -9.39225e-007 -4.89896e-007 1.2862e-006 6.93952e-007 -2.3343e-007 4.45085e-006 -3.51163e-006 -1.23626e-006 -5.92249e-007 -9.39225e-007 -4.89896e-007 1.2862e-006 0.0149922 -9.81284e-005 2.8639e-007 -3.51171e-006 -1.23633e-006 -5.92084e-007 -9.39225e-007 -4.89896e-007 1.2862e-006 0.0189557 -0.0011834 -5.97643e-005 -3.51173e-006 -1.23635e-006 -5.92008e-007 -9.39225e-007 -4.89896e-007 1.2862e-006 0.0122936 -0.00325284 -0.000675791 -1.78088e-006 -3.37138e-006 -9.75655e-008 -9.39225e-007 -4.89896e-007 1.2862e-006 6.93952e-007 -2.3343e-007 4.45085e-006 -3.51163e-006 -1.23626e-006 -5.92249e-007 -38.5273 -12.377 8.46011 179.943 41.7606 174.131 -2.1133 15.6549 -3.64761 -8.45765e-007 -6.52075e-007 -1.30672e-006 31.6122 -19.2995 -6.27595 -179.913 38.0696 -173.082 -1.56795 42.7463 5.71713 4.74994e-006 5.02647e-006 -1.52179e-006 
15.9298 12.4078 23.0954 -0 -33.0001 -0 0 15.5992 -0 0 31.1985 -0 0 31.1985 -0 0 30.9996 -0 1.02842 -11.6226 23.0538 0 0 -0 -76 2.47052e-006 4.99678 3.05176e-005 5.45341e-015 -141.005 -11.7465 -14.2857 7.85611 -7.8036e-007 -1.78383e-006 -9.48962e-007 2.18631e-006 1.23278e-006 1.7964e-006 -6.36111e-015 4.77083e-015 3.18055e-015 -7.8036e-007 -1.78383e-006 -9.48962e-007 -0.0145891 -9.30025e-005 8.36083e-007 -3.18055e-015 -1.59028e-015 -4.77083e-015 -7.8036e-007 -1.78383e-006 -9.48962e-007 -0.0187557 -0.00117708 6.12248e-005 3.18055e-015 -6.36111e-015 1.59028e-015 -7.8036e-007 -1.78383e-006 -9.48962e-007 -0.0123072 -0.00325462 0.000679768 3.18055e-015 1.59028e-015 -1.59028e-015 -7.8036e-007 -1.78383e-006 -9.48962e-007 2.18631e-006 1.23278e-006 1.7964e-006 -6.36111e-015 4.77083e-015 3.18055e-015 -1.2866e-006 2.76963e-006 16.997 23.138 26.8709 28.6263 3.32702 3.59081 55.8741 18.1005 -8.45684 20.2263 6.95066e-007 -2.22963e-007 4.38e-006 1.6163e-006 3.07682e-007 3.11123e-006 -1.17037e-006 1.08245e-006 6.87998e-007 6.95066e-007 -2.22963e-007 4.38e-006 0.0150437 -9.9221e-005 -2.10138e-006 -9.21177e-007 -5.30478e-007 1.26884e-006 6.95066e-007 -2.22963e-007 4.38e-006 0.0189669 -0.00118169 -5.665e-005 -9.2115e-007 -5.30439e-007 1.26886e-006 6.95066e-007 -2.22963e-007 4.38e-006 0.012327 -0.00326747 -0.000676171 -9.21148e-007 -5.30525e-007 1.26885e-006 6.95066e-007 -2.22963e-007 4.38e-006 1.6163e-006 3.07682e-007 3.11123e-006 -1.17037e-006 1.08245e-006 6.87998e-007 -39.7474 -12.1577 8.13553 179.943 41.7603 174.134 -2.11207 15.7026 -3.64465 3.29669e-007 3.27708e-006 -3.08599e-008 32.9265 -19.7098 -5.24831 -179.912 37.6099 -173.004 -1.63066 42.7844 5.79453 -2.99522e-006 2.35178e-006 2.75312e-006 
15.9335 11.9467 23.1006 -0 -33.0001 -0 0 15.5992 -0 0 31.1985 -0 0 31.1985 -0 0 30.9991 -0 0.779433 -10.3613 23.424 -0 -6.36111e-015 -0 -76 -3.15337e-007 4.99678 1.52588e-005 -5.45341e-015 -141.005 -11.5686 -15.0271 8.29741 1.41346e-005 5.61107e-007 4.99818e-007 1.55503e-005 -6.48297e-008 1.37511e-006 6.53898e-006 4.16219e-006 1.79618e-007 1.41346e-005 5.61107e-007 4.99818e-007 -0.0146069 -9.37052e-005 1.43139e-006 3.97801e-006 -2.24873e-007 -4.25465e-007 1.41346e-005 5.61107e-007 4.99818e-007 -0.0188065 -0.00117911 5.78147e-005 3.97811e-006 -2.24834e-007 -4.25512e-007 1.41346e-005 5.61107e-007 4.99818e-007 -0.0122289 -0.0032374 0.000676607 3.97794e-006 -2.24832e-007 -4.25585e-007 1.41346e-005 5.61107e-007 4.99818e-007 1.55503e-005 -6.48297e-008 1.37511e-006 6.53898e-006 4.16219e-006 1.79618e-007 -1.29558e-006 2.59314e-006 16.997 23.2857 26.9424 28.2999 2.29247 4.55098 51.9493 18.1005 -8.45685 20.2263 2.78299e-015 -3.18055e-015 -3.18055e-015 1.19271e-015 -3.18055e-015 -3.77691e-015 2.75869e-031 -6.36111e-015 2.48481e-015 2.78299e-015 -3.18055e-015 -3.18055e-015 0.0150043 -9.13546e-005 7.1029e-006 1.59028e-015 -1.59028e-014 -4.67144e-015 2.78299e-015 -3.18055e-015 -3.18055e-015 0.0190069 -0.00119395 -5.84425e-005 -1.59028e-015 3.18055e-015 4.47266e-015 2.78299e-015 -3.18055e-015 -3.18055e-015 0.0121908 -0.00322254 -0.000672367 -2.38542e-015 -6.36111e-015 -1.35174e-014 2.78299e-015 -3.18055e-015 -3.18055e-015 1.19271e-015 -3.18055e-015 -3.77691e-015 2.75869e-031 -6.36111e-015 2.48481e-015 -40.9648 -11.9318 7.81635 179.943 41.76 174.137 -2.11099 15.7508 -3.642 -3.33823e-007 -3.28827e-006 6.4294e-008 34.2504 -20.1019 -4.20557 -179.91 37.1509 -172.923 -1.69496 42.824 5.87442 -4.38382e-007 4.93093e-007 -1.09654e-006 
15.9371 11.4855 23.1058 -0 -33.0001 -0 0 15.5992 -0 0 31.1985 -0 0 31.1985 -0 0 30.9991 -0 0.52483 -9.10976 23.7958 -0 -6.36111e-015 -0 -75.9999 2.7944e-007 4.99678 1.52588e-005 5.45341e-015 -141.005 -11.3843 -15.7665 8.74228 3.97241e-006 -2.21084e-007 -4.60905e-007 3.97241e-006 -2.21084e-007 -4.60905e-007 3.97241e-006 -2.21084e-007 -4.60905e-007 3.97241e-006 -2.21084e-007 -4.60905e-007 -0.0146182 -8.82942e-005 3.1936e-006 3.97275e-006 -2.21023e-007 -4.60936e-007 3.97241e-006 -2.21084e-007 -4.60905e-007 -0.0187652 -0.00117641 6.66004e-005 3.97285e-006 -2.20983e-007 -4.60983e-007 3.97241e-006 -2.21084e-007 -4.60905e-007 -0.0123173 -0.00325698 0.000679354 3.97269e-006 -2.20981e-007 -4.61057e-007 3.97241e-006 -2.21084e-007 -4.60905e-007 3.97241e-006 -2.21084e-007 -4.60905e-007 3.97241e-006 -2.21084e-007 -4.60905e-007 -1.29558e-006 2.59314e-006 16.997 23.1012 26.853 28.7078 3.59641 3.36128 56.8602 18.1005 -8.45684 20.2263 -9.25866e-007 -5.20557e-007 1.27329e-006 6.94853e-007 -2.2567e-007 4.39832e-006 -9.25866e-007 -5.20557e-007 1.27329e-006 -9.25866e-007 -5.20557e-007 1.27329e-006 0.0150294 -8.91467e-005 3.53005e-006 -9.25811e-007 -5.2039e-007 1.27336e-006 -9.25866e-007 -5.20557e-007 1.27329e-006 0.0189882 -0.00118852 -5.5875e-005 -9.25785e-007 -5.20351e-007 1.27339e-006 -9.25866e-007 -5.20557e-007 1.27329e-006 0.0122702 -0.00324984 -0.000679177 -9.25783e-007 -5.20438e-007 1.27337e-006 -9.25866e-007 -5.20557e-007 1.27329e-006 6.94853e-007 -2.2567e-007 4.39832e-006 -9.25866e-007 -5.20557e-007 1.27329e-006 -42.1794 -11.6998 7.50267 179.943 41.7599 174.139 -2.11013 15.7997 -3.63967 -8.23466e-007 -6.98901e-007 -1.30009e-006 35.5832 -20.4754 -3.14832 -179.909 36.6924 -172.839 -1.761 42.8652 5.95689 3.64991e-006 1.33195e-005 6.62961e-006 
15.9406 11.0243 23.1111 -0 -33.0001 -0 0 15.5992 -0 0 31.1985 -0 0 31.1985 -0 0 30.9991 -0 0.264659 -7.86837 24.1695 -0 -6.36111e-015 -0 -75.9999 8.74217e-007 4.99678 1.52588e-005 5.45341e-015 -141.005 -11.1935 -16.5038 9.19086 -6.62086e-032 -2.38542e-015 -1.59028e-015 -0 -1.59028e-015 -0 -3.18055e-015 -1.59028e-015 -1.59028e-015 -6.62086e-032 -2.38542e-015 -1.59028e-015 -0.014611 -9.16319e-005 2.8938e-006 1.10348e-031 -3.97569e-015 1.59028e-015 -6.62086e-032 -2.38542e-015 -1.59028e-015 -0.018722 -0.00117937 6.12011e-005 -6.36111e-015 -1.59028e-015 4.77083e-015 -6.62086e-032 -2.38542e-015 -1.59028e-015 -0.0122567 -0.00325161 0.000680551 3.18055e-015 -1.59028e-015 -0 -6.62086e-032 -2.38542e-015 -1.59028e-015 -0 -1.59028e-015 -0 -3.18055e-015 -1.59028e-015 -1.59028e-015 -1.29558e-006 2.59314e-006 16.997 22.9174 26.7624 29.1152 5.00246 2.28323 61.8135 18.1005 -8.45685 20.2263 -1.19271e-015 -9.54166e-015 2.5345e-015 -3.42904e-015 -1.27222e-014 -1.2424e-017 -2.48481e-015 -9.54166e-015 -2.57178e-015 -1.19271e-015 -9.54166e-015 2.5345e-015 0.0149577 -9.12134e-005 3.74312e-006 1.73937e-015 0 6.12505e-015 -1.19271e-015 -9.54166e-015 2.5345e-015 0.0189686 -0.00118753 -6.1966e-005 7.45443e-016 3.18055e-015 8.38623e-015 -1.19271e-015 -9.54166e-015 2.5345e-015 0.0122325 -0.00324051 -0.000678981 3.97569e-016 0 -8.03835e-015 -1.19271e-015 -9.54166e-015 2.5345e-015 -3.42904e-015 -1.27222e-014 -1.2424e-017 -2.48481e-015 -9.54166e-015 -2.57178e-015 -43.3907 -11.4616 7.19466 179.943 41.7599 174.141 -2.10941 15.849 -3.63768 -2.04154e-006 3.97772e-006 2.24524e-006 36.9242 -20.8298 -2.07709 -179.907 36.2348 -172.753 -1.82886 42.908 6.04207 -7.24931e-008 8.54343e-008 -1.81628e-007 
